<?xml version="1.0" encoding="UTF-8"?>
<svg id="_Слой_2" data-name="Слой_2" xmlns="http://www.w3.org/2000/svg" viewBox="0 0 996.65 999.67">
  <defs>
    <style>
      .cls-1 {
        fill:currentColor;
      }

      .cls-2 {
        fill: none;
        stroke:currentColor;
        stroke-miterlimit: 10;
        stroke-width: 1.8px;
      }
    </style>
  </defs>

    <g>
      <path class="cls-1" d="M655.85,397.41c-4.29-46.14-11.37-89.42-20.77-128.55-3.07-12.76-6.38-25.08-9.94-36.92-30.72-102.79-78.73-168.9-132.65-168.9s-101.92,66.12-132.67,168.92c-3.54,11.82-6.85,24.13-9.92,36.89-9.4,39.15-16.48,82.43-20.77,128.57-1.51,16.31-2.66,32.99-3.45,49.95-.04.86-.09,1.74-.13,2.61,12.9-10.85,26.45-21.69,40.57-32.39.09-1.1.16-2.17.25-3.25,1.28-16.6,2.91-32.77,4.89-48.47,3.74-29.77,8.68-57.78,14.64-83.53,3.02-12.99,6.29-25.4,9.81-37.17,23.68-79.38,58.27-129.38,96.77-129.38s73.07,50,96.77,129.36c3.49,11.66,6.74,23.97,9.72,36.83.04.13.05.23.09.36,5.96,25.75,10.91,53.77,14.64,83.54,2.1,16.71,3.83,33.97,5.14,51.71.93.72,1.89,1.44,2.82,2.16,13.1,10.01,25.71,20.1,37.75,30.24-.79-17.86-1.99-35.41-3.58-52.55ZM625.33,550.02c-1.56,1.2-3.13,2.41-4.71,3.59-.79,17.28-1.99,34.19-3.54,50.67-2.95,31.17-7.17,60.75-12.5,88.16-.16.86-.32,1.71-.5,2.57-2.39,12.15-5.01,23.88-7.85,35.12-23.57,93.93-61.27,154.75-103.72,154.75s-80.15-60.82-103.72-154.75c-3.04-12.04-5.82-24.61-8.35-37.69-5.34-27.42-9.56-56.97-12.5-88.14-1.4-14.93-2.52-30.22-3.31-45.81-.09-1.62-.16-3.25-.23-4.87-13.82-10.51-27.06-21.15-39.71-31.8.02,1.35.05,2.69.09,4.02.34,16.06,1.04,31.89,2.03,47.43,3.05,47.11,8.98,91.67,17.32,132.38,2.62,12.85,5.5,25.3,8.59,37.33,30.13,117.36,81.5,194.65,139.8,194.65s109.67-77.29,139.8-194.65c3.09-12.04,5.96-24.49,8.59-37.33,8.34-40.73,14.27-85.29,17.32-132.4,1.08-16.83,1.8-33.99,2.12-51.42-11.21,9.43-22.89,18.85-35,28.19Z"/>
      <path class="cls-1" d="M491.91,377.77c-60.18,0-108.97,48.79-108.97,108.97s48.79,108.97,108.97,108.97,108.97-48.79,108.97-108.97-48.79-108.97-108.97-108.97ZM491.91,569.58c-46.79,0-84.72-37.93-84.72-84.72s37.93-84.72,84.72-84.72,84.72,37.93,84.72,84.72-37.93,84.72-84.72,84.72Z"/>
      <circle class="cls-1" cx="271.51" cy="632.15" r="34.8"/>
      <circle class="cls-1" cx="494.14" cy="782.6" r="34.8"/>
      <circle class="cls-1" cx="713.49" cy="630.75" r="34.8"/>
      <circle class="cls-1" cx="713.96" cy="340.62" r="34.8"/>
      <circle class="cls-1" cx="489.92" cy="202.36" r="34.8"/>
      <circle class="cls-1" cx="272.45" cy="337.34" r="34.8"/>
      <path class="cls-1" d="M855.73,729.76c-30.92,46.14-116.6,48.01-223.43,13.22-11.79-3.84-23.82-8.12-36.08-12.85-33.31-12.83-68.18-28.87-103.72-47.92-13.22-7.1-26.55-14.61-39.92-22.53-17.84-10.56-35.75-21.87-53.65-33.85-10.56-7.08-20.9-14.27-31.01-21.54-14.19-10.19-27.9-20.55-41.13-31.03-24.9-19.75-48.02-39.87-69.14-60.04-9.41-8.97-18.42-17.97-27-26.95-59.47-62.2-98.55-123.29-109.88-172.79,10.74,7.06,23.59,11.18,37.41,11.18,3.4,0,6.72-.27,9.99-.74,9.74,37.62,41.5,85.27,89.47,135.36,8.5,8.88,17.5,17.82,26.99,26.81.05.05.13.11.18.18,12.49,11.82,25.8,23.7,39.87,35.54,12.65,10.65,25.89,21.29,39.71,31.8,17.82,13.58,36.54,27,56.09,40.1,24.15,16.19,48.28,31.06,72.03,44.5,13.44,7.62,26.77,14.77,39.9,21.45,24.85,12.65,49.03,23.61,72.17,32.77.95.38,1.9.75,2.86,1.13,11.44,4.47,22.6,8.5,33.45,12.07,83.83,27.63,148.75,28.03,171.04-5.25,25.26-37.68-10.19-109.49-84.59-187.18-8.55-8.91-17.61-17.91-27.15-26.95-12.76-12.07-26.36-24.22-40.77-36.31-12.04-10.13-24.65-20.23-37.75-30.24-.93-.72-1.89-1.44-2.82-2.16-17.28-13.12-35.43-26.09-54.33-38.75-24.15-16.19-48.28-31.05-72.03-44.49-.54-.32-1.08-.63-1.62-.93-12.9-7.26-25.69-14.12-38.3-20.54-22.87-11.64-45.2-21.85-66.66-30.54-12.31-5.01-24.34-9.5-36.01-13.47-49.07-16.73-91.95-24.36-124.08-21.67-2.16-16.03-9.86-30.29-21.15-40.8,41.54-3.65,95.19,5.32,155.14,25.58,11.73,3.95,23.72,8.35,35.9,13.19,31.19,12.34,63.69,27.47,96.75,45.2,12.9,6.92,25.89,14.23,38.93,21.94.32.18.65.38.99.59,17.84,10.55,35.75,21.85,53.65,33.83,9.4,6.31,18.63,12.68,27.67,19.15.72.49,1.42,1.01,2.14,1.53,13.78,9.86,27.13,19.89,39.99,30.02,25.8,20.34,49.71,41.09,71.49,61.9,9.41,8.98,18.42,17.98,26.99,26.95,92.98,97.22,136.13,191.69,101.4,243.5Z"/>
      <path class="cls-1" d="M862.79,319.31c-12.97,48.42-51.29,107.17-108.46,166.95-8.57,8.98-17.57,17.98-26.99,26.97-21.09,20.18-44.23,40.3-69.14,60.03-11.68,9.25-23.75,18.42-36.18,27.45-1.63,1.2-3.29,2.39-4.94,3.58-10.12,7.28-20.46,14.48-31.03,21.56-17.89,11.98-35.81,23.28-53.65,33.83-.68.43-1.37.83-2.05,1.22-12.68,7.49-25.32,14.59-37.86,21.33-35.54,19.04-70.41,35.09-103.72,47.92-12.25,4.73-24.29,9-36.08,12.85-106.83,34.78-192.51,32.91-223.43-13.22-34.73-51.8,8.43-146.27,101.39-243.48,8.57-8.97,17.57-17.97,26.99-26.99,21.78-20.79,45.71-41.54,71.51-61.88,13.55-10.65,27.6-21.2,42.13-31.57,9.04-6.45,18.25-12.83,27.65-19.13,17.89-12,35.81-23.28,53.65-33.85,13.37-7.92,26.68-15.43,39.9-22.51,33.08-17.75,65.58-32.88,96.79-45.22,12.18-4.82,24.15-9.22,35.88-13.19,64.12-21.65,121.01-30.4,163.59-24.61-11,10.65-18.4,24.97-20.28,40.98-32.91-5.26-79.41,2.14-133.37,20.55-11.18,3.79-22.69,8.08-34.46,12.83-.52.2-1.02.41-1.55.63-21.45,8.7-43.78,18.9-66.67,30.56-13.13,6.67-26.46,13.83-39.9,21.45-23.75,13.44-47.88,28.3-72.03,44.49-18.9,12.67-37.05,25.64-54.33,38.75-14.12,10.71-27.67,21.54-40.57,32.39-14.41,12.09-28.01,24.24-40.77,36.31-.16.16-.34.32-.5.49-9.36,8.86-18.25,17.7-26.64,26.46-74.4,77.69-109.85,149.5-84.59,187.18,22.3,33.27,87.21,32.88,171.04,5.25,11.75-3.86,23.88-8.28,36.31-13.21,23.12-9.16,47.32-20.12,72.15-32.75,12.36-6.29,24.88-12.99,37.51-20.12.81-.43,1.62-.88,2.41-1.35,23.75-13.44,47.88-28.32,72.03-44.5,19.55-13.1,38.29-26.52,56.09-40.1,1.58-1.19,3.14-2.39,4.71-3.59,12.11-9.34,23.79-18.76,35-28.19,14.07-11.84,27.38-23.73,39.87-35.56,9.54-9.04,18.6-18.04,27.15-26.97,48.82-50.95,80.87-99.39,89.99-137.32,6,1.72,12.34,2.68,18.92,2.68,9.41,0,18.38-1.9,26.54-5.35Z"/>
      <circle class="cls-1" cx="158.17" cy="256.79" r="53.81"/>
      <circle class="cls-1" cx="836.26" cy="256.79" r="53.81"/>
      <path class="cls-2" d="M625.33,550.02c-.61,16.62-1.69,33.56-3.31,50.68-2.89,30.69-7.56,61.91-14.59,92.87-.18.84-.38,1.71-.57,2.55,0,0-.95-.38-2.78-1.11-8.59-3.54-36.38-15.24-73.72-34.12-12.47-6.32-26-13.44-40.26-21.33-38.97-21.54-83.26-48.82-125.48-81.08-13.58-10.35-26.95-21.24-39.85-32.65-14.14-12.43-27.74-25.48-40.46-39.08l-.14-.14s.16-.18.47-.52c2.69-2.89,16.57-17.54,41.07-38.74,11.3-9.79,24.88-20.99,40.69-33.04,32.36-24.74,74-53.18,124.49-80.92,12.94-7.11,26.45-14.18,40.53-21.11,21.22-10.47,43.77-20.66,67.57-30.33.52-.22,1.02-.41,1.55-.63,0,0,.04.13.09.36.88,3.68,8.55,36.11,15.24,85.7,2.12,15.81,4.15,33.38,5.82,52.34M364.38,553.62c-13.82-10.51-27.06-21.15-39.71-31.8M366.14,417.57c-14.12,10.71-27.67,21.54-40.57,32.39"/>
      <circle class="cls-1" cx="208.82" cy="132.87" r="22.5"/>
      <circle class="cls-1" cx="423.95" cy="22.5" r="22.5"/>
      <path class="cls-1" d="M293.13,93.33c.79,1.69,2.1,3.54,3.72,5.41l-20.12,10.31-48.11,24.7c-4.47,2.28-10.01.5-12.31-3.97-.68-1.31-.99-2.73-.99-4.13,0-3.32,1.81-6.56,4.96-8.16l53.61-27.51,18.07-9.29c-.83,4.96-.23,9.59,1.17,12.63Z"/>
      <path class="cls-1" d="M423.1,28.33c0,3.32-1.81,6.54-4.96,8.16l-51.85,26.61-19.62,10.06c-2.3-5.8-6.31-11.19-12.2-14.27l19.6-10.08,55.71-28.58c4.47-2.3,10.01-.52,12.31,3.95.68,1.33,1.01,2.75,1.01,4.15Z"/>
      <path class="cls-1" d="M366.9,64.56c-.22-.49-.41-.97-.61-1.47-1.96-4.6-4.24-9.29-12.22-14.28-4.67-2.91-11.28-5.93-20.93-9.09,0,0-2.34-7.49-7.96-8.66-5.62-1.19-13.6-.93-15.24,9.13,0,0-26.95,6.81-32.57,16.64-3.58,6.27-4.13,20.9-3.49,33.17.34,7.01,1.08,13.26,1.85,16.76.16.75.5,1.53.99,2.3,5.77,9.25,32.05,20.19,32.05,20.19v56.14c0,1.09.89,1.98,1.98,1.98h14.08c1.09,0,1.98-.89,1.98-1.98v-54.98s34.44-15.24,39.13-21.79c4.69-6.56,4.22-36.33.95-44.05ZM347.62,92.97c-5.1,11.97-24.43,22.15-30.58,23.03,0,0-13.08-8.98-20.19-17.27-1.62-1.87-2.93-3.72-3.72-5.41-1.4-3.04-1.99-7.67-1.17-12.63,1.6-9.95,8.79-21.29,26.12-24.11,6.54-1.06,11.98-.04,16.39,2.3,5.89,3.07,9.9,8.46,12.2,14.27,2.82,7.13,3.05,14.89.95,19.82Z"/>
      <path class="cls-1" d="M640.01,47.85l19.39,10.42c-4.31,3.31-7.76,7.69-9.9,12.77l-18.42-9.9-42.6-22.91c-3.86-2.07-5.32-6.94-3.23-10.8,1.42-2.66,4.19-4.19,7.02-4.19,1.28,0,2.57.31,3.76.95l43.98,23.64Z"/>
      <path class="cls-1" d="M782.16,133.3c-1.44,2.68-4.2,4.19-7.06,4.19-1.26,0-2.55-.31-3.74-.93l-48.15-25.89-18.43-9.9c2.96-4.44,4.82-9.67,5.21-15.29l19.4,10.42,49.52,26.63c3.86,2.07,5.32,6.92,3.25,10.78Z"/>
      <circle class="cls-1" cx="578.12" cy="22.15" r="17.69"/>
      <circle class="cls-1" cx="786.46" cy="134.4" r="17.69"/>
      <path class="cls-1" d="M678.55,30.93c-15.25,0-28.98,6.52-38.54,16.92-3.63,3.92-6.65,8.41-8.93,13.3-3.14,6.72-4.9,14.23-4.9,22.15,0,28.93,23.45,52.39,52.37,52.39,18.9,0,35.47-10.01,44.67-25.03,2.78-4.51,4.89-9.49,6.18-14.77,1.01-4.04,1.53-8.25,1.53-12.59,0-28.93-23.45-52.37-52.37-52.37ZM704.78,100.77c-5.64,8.48-15.29,14.07-26.23,14.07-17.41,0-31.53-14.12-31.53-31.53,0-4.35.88-8.48,2.48-12.25,2.14-5.08,5.59-9.47,9.9-12.77,5.32-4.08,11.95-6.49,19.15-6.49,17.41,0,31.51,14.12,31.51,31.51,0,.74-.02,1.46-.07,2.17-.4,5.62-2.25,10.85-5.21,15.29Z"/>
      <path class="cls-1" d="M668.23,124.67h22.5v56.77c0,1.26-1.02,2.28-2.28,2.28h-17.93c-1.26,0-2.28-1.02-2.28-2.28v-56.77h0Z"/>
      <rect class="cls-1" x="915.94" y="325.33" width="48.98" height="19.92" rx="2.67" ry="2.67"/>
      <rect class="cls-1" x="877.38" y="367.28" width="126.08" height="19.92" rx="2.67" ry="2.67" transform="translate(1317.66 -563.18) rotate(90)"/>
      <path class="cls-1" d="M903.67,498.04h-97.42c-2.64,0-4.8-2.16-4.8-4.8v-10.31c0-2.66,2.16-4.82,4.8-4.82h97.2l.13,18.34c0,.54.04,1.06.09,1.58Z"/>
      <rect class="cls-1" x="884.15" y="577.29" width="111.14" height="19.92" rx="2.67" ry="2.67" transform="translate(352.48 1526.97) rotate(-90)"/>
      <circle class="cls-1" cx="940.07" cy="632.85" r="24.96"/>
      <path class="cls-1" d="M996.5,473.93c-.5-10.4-4.9-20.21-12.45-27.42-5.57-5.34-11.68-9.27-17.52-12.15-16.35-8.08-35.61-8.7-52.32-1.37-20.84,9.15-29.02,26.2-30.99,45.11-.63,5.91-.63,12-.23,18.09.04.61.09,1.22.16,1.83,3.04,31.05,31.26,44.58,56.56,45.51,25.76.93,44.29-13.6,50.61-24.15,4.49-7.49,6.99-29.34,6.18-45.47ZM967.02,511.65l-18.04,10.6c-5.57,3.27-12.45,3.32-18.06.13l-18.2-10.33c-5.14-2.91-8.52-8.17-9.06-14-.05-.52-.09-1.04-.09-1.58l-.13-18.34-.02-2.59c-.05-6.45,3.34-12.43,8.91-15.7l18.04-10.6c5.57-3.25,12.47-3.31,18.07-.13l18.2,10.33c5.61,3.2,9.09,9.13,9.15,15.6l.14,20.91c.05,6.45-3.36,12.45-8.93,15.7Z"/>
      <circle class="cls-1" cx="936.97" cy="707.08" r="15.23"/>
      <circle class="cls-1" cx="899" cy="775.51" r="15.23"/>
      <circle class="cls-1" cx="799.64" cy="840.66" r="36.32"/>
      <path class="cls-1" d="M682.7,837.26c-33.91,0-61.4,27.49-61.4,61.4s27.49,61.4,61.4,61.4,61.4-27.49,61.4-61.4-27.49-61.4-61.4-61.4ZM682.7,939.67c-22.65,0-41.01-18.36-41.01-41.01s18.36-41.01,41.01-41.01,41.01,18.36,41.01,41.01-18.36,41.01-41.01,41.01Z"/>
      <circle class="cls-1" cx="500.14" cy="986.9" r="12.42"/>
      <circle class="cls-1" cx="574.9" cy="973.07" r="23.9"/>
      <circle class="cls-1" cx="62.15" cy="705.91" r="15"/>
      <circle class="cls-1" cx="98.47" cy="773.64" r="16.64"/>
      <circle class="cls-1" cx="56.29" cy="331.43" r="18.98"/>
      <circle class="cls-1" cx="58.17" cy="630.8" r="24.37"/>
      <circle class="cls-1" cx="196.9" cy="835.62" r="42.18"/>
      <circle class="cls-1" cx="429.61" cy="975.06" r="24.61"/>
      <rect class="cls-1" x="586.5" y="943.42" width="41.95" height="18.75" rx="2.57" ry="2.57" transform="translate(-422.84 488.79) rotate(-33.23)"/>
      <rect class="cls-1" x="356.65" y="942.64" width="65.11" height="18.75" rx="2.57" ry="2.57" transform="translate(611.53 -52.17) rotate(34.72)"/>
      <rect class="cls-1" x="210.07" y="855.11" width="65.11" height="18.75" rx="2.57" ry="2.57" transform="translate(535.58 15.73) rotate(34.72)"/>
      <rect class="cls-1" x="284.59" y="800.62" width="65.11" height="18.75" rx="2.57" ry="2.57" transform="translate(1127.15 492.85) rotate(90)"/>
      <path class="cls-1" d="M375.83,883.54c-.06-13.08-7.09-25.13-18.44-31.62l-23.81-13.6c-11.35-6.49-25.31-6.43-36.6.16l-23.69,13.82c-11.3,6.59-18.22,18.7-18.16,31.78l.12,27.42c.06,13.08,7.09,25.13,18.44,31.62l23.81,13.6c11.35,6.49,25.31,6.43,36.6-.16l23.69-13.82c11.3-6.59,18.22-18.7,18.16-31.78l-.12-27.42ZM345.81,926.88l-18.88,11.01c-6.85,4-15.32,4.04-22.21.1l-18.98-10.84c-6.89-3.94-11.16-11.25-11.19-19.19l-.1-21.86c-.04-7.94,4.17-15.29,11.02-19.29l18.88-11.01c6.85-4,15.32-4.04,22.21-.1l18.98,10.84c6.89,3.94,11.16,11.25,11.19,19.19l.1,21.86c.04,7.94-4.17,15.29-11.02,19.29Z"/>
      <path class="cls-1" d="M112.06,450.07l-49.29-28.46c-2.78-1.61-6.21-1.61-8.99,0l-49.29,28.46c-2.78,1.61-4.49,4.57-4.49,7.78v56.91c0,3.21,1.71,6.18,4.49,7.78l49.29,28.46c2.78,1.61,6.21,1.61,8.99,0l49.29-28.46c2.78-1.61,4.49-4.57,4.49-7.78v-56.91c0-3.21-1.71-6.18-4.49-7.78ZM93.79,505.23c0,.98-.53,1.89-1.38,2.39l-32.76,18.91c-.85.49-1.9.49-2.76,0l-32.76-18.91c-.85-.49-1.38-1.4-1.38-2.39v-37.83c0-.98.53-1.89,1.38-2.39l32.76-18.91c.85-.49,1.9-.49,2.76,0l32.76,18.91c.85.49,1.38,1.4,1.38,2.39v37.83Z"/>
      <rect class="cls-1" x="48.56" y="371.26" width="19.22" height="65.15" rx="2.09" ry="2.09"/>
      <rect class="cls-1" x="48.56" y="543.74" width="19.22" height="68.9" rx="2.09" ry="2.09"/>
      <rect class="cls-1" x="108.55" y="473.91" width="81.55" height="23.9" rx="2.74" ry="2.74"/>
    </g>
</svg>